<svg width="56" height="56" viewBox="0 0 56 56" fill="none" xmlns="http://www.w3.org/2000/svg">
<circle cx="28" cy="28" r="28" fill="#A53DFF"/>
<path d="M26.5781 19.2344H29.3906V28.0586H31.7227L34.7461 19.2344H37.7227L34.3828 28.0586H34.9805C35.2852 28.0586 35.5625 28.1367 35.8125 28.293C36.0703 28.4492 36.2891 28.6602 36.4688 28.9258C36.6484 29.1914 36.7891 29.5039 36.8906 29.8633C36.9922 30.2148 37.043 30.5938 37.043 31V34.9844H40.1602C40.1289 35.2656 40.0508 35.5273 39.9258 35.7695C39.8086 36.0117 39.6562 36.2266 39.4688 36.4141C39.2891 36.5938 39.082 36.7383 38.8477 36.8477C38.6133 36.9492 38.3672 37 38.1094 37H36.457C36.1523 37 35.8633 36.9219 35.5898 36.7656C35.3242 36.6094 35.0898 36.3984 34.8867 36.1328C34.6836 35.8672 34.5234 35.5547 34.4062 35.1953C34.2891 34.8359 34.2305 34.4531 34.2305 34.0469V30.0273H29.3906V37H26.5781V19.2344Z" fill="white"/>
<path d="M17.8594 25.4922C17.8594 25.0859 17.918 24.707 18.0352 24.3555C18.1602 23.9961 18.3242 23.6836 18.5273 23.418C18.7383 23.1445 18.9805 22.9297 19.2539 22.7734C19.5273 22.6172 19.8203 22.5391 20.1328 22.5391H20.6602V34.9961H26.0859V21.2148H15.5859C15.6094 20.9414 15.6797 20.6836 15.7969 20.4414C15.9219 20.1992 16.0742 19.9883 16.2539 19.8086C16.4414 19.6289 16.6523 19.4883 16.8867 19.3867C17.1211 19.2852 17.3711 19.2344 17.6367 19.2344H26.6367C26.9414 19.2344 27.2305 19.3125 27.5039 19.4688C27.7773 19.6172 28.0117 19.8281 28.207 20.1016C28.4102 20.3672 28.5703 20.6836 28.6875 21.0508C28.8047 21.4102 28.8633 21.7969 28.8633 22.2109V34.0469C28.8633 34.4531 28.8047 34.8359 28.6875 35.1953C28.5703 35.5547 28.4102 35.8672 28.207 36.1328C28.0117 36.3984 27.7773 36.6094 27.5039 36.7656C27.2383 36.9219 26.9531 37 26.6484 37H17.8711L17.8594 25.4922Z" fill="white"/>
</svg>
